# xmcd
#
# Track frame offsets:
#	150
#	17840
#	36631
#	53441
#	69139
#	90859
#	108816
#	124286
#	152104
#	174796
#	196346
#	216411
#	233422
#	250530
#	271299
#	296915
#
# Disc length: 4230
#
# Revision: 1
# Processed by: cddbd v1.5.1PL0 Copyright (c) Steve Scherf et al.
# Submitted via: CDex 1.51
# Normalized: r0:DSETVAR1,TDELIM( - )
#
DISCID=d0108410
DTITLE=Various Artist - Jazz now
DYEAR=2003
DGENRE=Jazz
TTITLE0=Diana Krall - Straighten up and fly right
TTITLE1=Segio Cammeriere - Tutto quello che un uomo
TTITLE2=Malia feat. Eric Truffaz - Yellow Daffodils
TTITLE3=Joel Harrison - Lonesome road blues
TTITLE4=Coral Egan/Alex Cattaneo - The night as a thousand eyes
TTITLE5=De-Phazz - Hero dead and gone
TTITLE6=Mousse T. feat. Emma Landford - Horny
TTITLE7=Julia Husmann trio with Rebekka Bakken - Anyone
TTITLE8=Cassandra Wison - Gee babu aint't I good to You
TTITLE9=Carmen Lundy - Send me somebody to love
TTITLE10=Nicola Arigliano - Sing sing sing
TTITLE11=Vinicio Capossela - All'una e trentacinque circa
TTITLE12=Jimmy Villotti - Adesso che tu
TTITLE13=Julia Husmann trio with Rebecca Bakken - Love is more thicker than forget
TTITLE14=Novecento - Living so fast
TTITLE15=Toots thielemans - I'm old fashloned
EXTD=YEAR: 2003
EXTT0=
EXTT1=
EXTT2=
EXTT3=
EXTT4=
EXTT5=
EXTT6=
EXTT7=
EXTT8=
EXTT9=
EXTT10=
EXTT11=
EXTT12=
EXTT13=
EXTT14=
EXTT15=
PLAYORDER=
